<?xml version="1.0" encoding="UTF-8" standalone="no"?>
<!DOCTYPE svg PUBLIC "-//W3C//DTD SVG 1.1//EN"
 "http://www.w3.org/Graphics/SVG/1.1/DTD/svg11.dtd">
<!-- Generated by graphviz version 2.44.0 (20200408.0750)
 -->
<!-- Title: graphemebreak.c Pages: 1 -->
<svg width="338pt" height="252pt"
 viewBox="0.00 0.00 337.50 252.00" xmlns="http://www.w3.org/2000/svg" xmlns:xlink="http://www.w3.org/1999/xlink">
<g id="graph0" class="graph" transform="scale(1 1) rotate(0) translate(4 248)">
<title>graphemebreak.c</title>
<polygon fill="white" stroke="transparent" points="-4,4 -4,-248 333.5,-248 333.5,4 -4,4"/>
<!-- Node1 -->
<g id="node1" class="node">
<title>Node1</title>
<g id="a_node1"><a xlink:title=" ">
<polygon fill="#bfbfbf" stroke="black" points="69.5,-224.5 69.5,-243.5 161.5,-243.5 161.5,-224.5 69.5,-224.5"/>
<text text-anchor="middle" x="115.5" y="-231.5" font-family="Helvetica,sans-Serif" font-size="10.00">graphemebreak.c</text>
</a>
</g>
</g>
<!-- Node2 -->
<g id="node2" class="node">
<title>Node2</title>
<g id="a_node2"><a xlink:title=" ">
<polygon fill="white" stroke="#bfbfbf" points="0,-168.5 0,-187.5 49,-187.5 49,-168.5 0,-168.5"/>
<text text-anchor="middle" x="24.5" y="-175.5" font-family="Helvetica,sans-Serif" font-size="10.00">string.h</text>
</a>
</g>
</g>
<!-- Node1&#45;&gt;Node2 -->
<g id="edge1" class="edge">
<title>Node1&#45;&gt;Node2</title>
<path fill="none" stroke="midnightblue" d="M100.88,-224.32C86.55,-215.82 64.49,-202.73 47.75,-192.8"/>
<polygon fill="midnightblue" stroke="midnightblue" points="49.47,-189.75 39.08,-187.65 45.9,-195.77 49.47,-189.75"/>
</g>
<!-- Node3 -->
<g id="node3" class="node">
<title>Node3</title>
<g id="a_node3"><a xlink:href="graphemebreak_8h.html" target="_top" xlink:title=" ">
<polygon fill="white" stroke="black" points="39.5,-56.5 39.5,-75.5 131.5,-75.5 131.5,-56.5 39.5,-56.5"/>
<text text-anchor="middle" x="85.5" y="-63.5" font-family="Helvetica,sans-Serif" font-size="10.00">graphemebreak.h</text>
</a>
</g>
</g>
<!-- Node1&#45;&gt;Node3 -->
<g id="edge2" class="edge">
<title>Node1&#45;&gt;Node3</title>
<path fill="none" stroke="midnightblue" d="M112.38,-224.49C109.2,-215.53 104.35,-200.95 101.5,-188 93.64,-152.25 89.1,-109.66 86.98,-85.73"/>
<polygon fill="midnightblue" stroke="midnightblue" points="90.45,-85.27 86.13,-75.6 83.48,-85.85 90.45,-85.27"/>
</g>
<!-- Node6 -->
<g id="node6" class="node">
<title>Node6</title>
<g id="a_node6"><a xlink:href="graphemebreakdata_8c.html" target="_top" xlink:title=" ">
<polygon fill="white" stroke="black" points="143.5,-168.5 143.5,-187.5 253.5,-187.5 253.5,-168.5 143.5,-168.5"/>
<text text-anchor="middle" x="198.5" y="-175.5" font-family="Helvetica,sans-Serif" font-size="10.00">graphemebreakdata.c</text>
</a>
</g>
</g>
<!-- Node1&#45;&gt;Node6 -->
<g id="edge5" class="edge">
<title>Node1&#45;&gt;Node6</title>
<path fill="none" stroke="midnightblue" d="M128.84,-224.32C141.66,-215.98 161.28,-203.21 176.44,-193.35"/>
<polygon fill="midnightblue" stroke="midnightblue" points="178.72,-196.04 185.2,-187.65 174.91,-190.17 178.72,-196.04"/>
</g>
<!-- Node8 -->
<g id="node8" class="node">
<title>Node8</title>
<g id="a_node8"><a xlink:href="unibreakdef_8h.html" target="_top" xlink:title=" ">
<polygon fill="white" stroke="black" points="154,-56.5 154,-75.5 229,-75.5 229,-56.5 154,-56.5"/>
<text text-anchor="middle" x="191.5" y="-63.5" font-family="Helvetica,sans-Serif" font-size="10.00">unibreakdef.h</text>
</a>
</g>
</g>
<!-- Node1&#45;&gt;Node8 -->
<g id="edge11" class="edge">
<title>Node1&#45;&gt;Node8</title>
<path fill="none" stroke="midnightblue" d="M114.8,-224.38C113.53,-203.51 112.71,-149.26 134.5,-112 141.98,-99.2 154.61,-88.67 166.09,-81.02"/>
<polygon fill="midnightblue" stroke="midnightblue" points="168.29,-83.77 174.92,-75.51 164.58,-77.83 168.29,-83.77"/>
</g>
<!-- Node10 -->
<g id="node10" class="node">
<title>Node10</title>
<g id="a_node10"><a xlink:href="emojidef_8h.html" target="_top" xlink:title=" ">
<polygon fill="white" stroke="black" points="267.5,-112.5 267.5,-131.5 329.5,-131.5 329.5,-112.5 267.5,-112.5"/>
<text text-anchor="middle" x="298.5" y="-119.5" font-family="Helvetica,sans-Serif" font-size="10.00">emojidef.h</text>
</a>
</g>
</g>
<!-- Node1&#45;&gt;Node10 -->
<g id="edge12" class="edge">
<title>Node1&#45;&gt;Node10</title>
<path fill="none" stroke="midnightblue" d="M161.83,-227.97C193.11,-222.54 233.78,-211.27 262.5,-188 277.5,-175.84 287.27,-155.68 292.79,-141.03"/>
<polygon fill="midnightblue" stroke="midnightblue" points="296.12,-142.13 296.08,-131.53 289.5,-139.84 296.12,-142.13"/>
</g>
<!-- Node4 -->
<g id="node4" class="node">
<title>Node4</title>
<g id="a_node4"><a xlink:title=" ">
<polygon fill="white" stroke="#bfbfbf" points="145.5,-0.5 145.5,-19.5 197.5,-19.5 197.5,-0.5 145.5,-0.5"/>
<text text-anchor="middle" x="171.5" y="-7.5" font-family="Helvetica,sans-Serif" font-size="10.00">stddef.h</text>
</a>
</g>
</g>
<!-- Node3&#45;&gt;Node4 -->
<g id="edge3" class="edge">
<title>Node3&#45;&gt;Node4</title>
<path fill="none" stroke="midnightblue" d="M99.32,-56.32C112.73,-47.9 133.32,-34.97 149.09,-25.07"/>
<polygon fill="midnightblue" stroke="midnightblue" points="151.11,-27.94 157.72,-19.65 147.39,-22.01 151.11,-27.94"/>
</g>
<!-- Node5 -->
<g id="node5" class="node">
<title>Node5</title>
<g id="a_node5"><a xlink:href="unibreakbase_8h.html" target="_top" xlink:title=" ">
<polygon fill="white" stroke="black" points="44,-0.5 44,-19.5 127,-19.5 127,-0.5 44,-0.5"/>
<text text-anchor="middle" x="85.5" y="-7.5" font-family="Helvetica,sans-Serif" font-size="10.00">unibreakbase.h</text>
</a>
</g>
</g>
<!-- Node3&#45;&gt;Node5 -->
<g id="edge4" class="edge">
<title>Node3&#45;&gt;Node5</title>
<path fill="none" stroke="midnightblue" d="M85.5,-56.08C85.5,-49.01 85.5,-38.86 85.5,-29.99"/>
<polygon fill="midnightblue" stroke="midnightblue" points="89,-29.75 85.5,-19.75 82,-29.75 89,-29.75"/>
</g>
<!-- Node7 -->
<g id="node7" class="node">
<title>Node7</title>
<g id="a_node7"><a xlink:href="graphemebreakdef_8h.html" target="_top" xlink:title=" ">
<polygon fill="white" stroke="black" points="144,-112.5 144,-131.5 249,-131.5 249,-112.5 144,-112.5"/>
<text text-anchor="middle" x="196.5" y="-119.5" font-family="Helvetica,sans-Serif" font-size="10.00">graphemebreakdef.h</text>
</a>
</g>
</g>
<!-- Node6&#45;&gt;Node7 -->
<g id="edge6" class="edge">
<title>Node6&#45;&gt;Node7</title>
<path fill="none" stroke="midnightblue" d="M198.17,-168.08C197.91,-161.01 197.53,-150.86 197.2,-141.99"/>
<polygon fill="midnightblue" stroke="midnightblue" points="200.69,-141.61 196.82,-131.75 193.7,-141.87 200.69,-141.61"/>
</g>
<!-- Node7&#45;&gt;Node8 -->
<g id="edge7" class="edge">
<title>Node7&#45;&gt;Node8</title>
<path fill="none" stroke="midnightblue" d="M195.67,-112.08C195.02,-105.01 194.08,-94.86 193.26,-85.99"/>
<polygon fill="midnightblue" stroke="midnightblue" points="196.72,-85.39 192.31,-75.75 189.75,-86.03 196.72,-85.39"/>
</g>
<!-- Node8&#45;&gt;Node4 -->
<g id="edge9" class="edge">
<title>Node8&#45;&gt;Node4</title>
<path fill="none" stroke="midnightblue" d="M188.2,-56.08C185.52,-48.85 181.65,-38.41 178.31,-29.4"/>
<polygon fill="midnightblue" stroke="midnightblue" points="181.5,-27.91 174.74,-19.75 174.93,-30.34 181.5,-27.91"/>
</g>
<!-- Node8&#45;&gt;Node5 -->
<g id="edge10" class="edge">
<title>Node8&#45;&gt;Node5</title>
<path fill="none" stroke="midnightblue" d="M174.47,-56.32C157.47,-47.66 131.12,-34.24 111.51,-24.25"/>
<polygon fill="midnightblue" stroke="midnightblue" points="112.99,-21.08 102.49,-19.65 109.81,-27.31 112.99,-21.08"/>
</g>
<!-- Node9 -->
<g id="node9" class="node">
<title>Node9</title>
<g id="a_node9"><a xlink:title=" ">
<polygon fill="white" stroke="#bfbfbf" points="215.5,-0.5 215.5,-19.5 271.5,-19.5 271.5,-0.5 215.5,-0.5"/>
<text text-anchor="middle" x="243.5" y="-7.5" font-family="Helvetica,sans-Serif" font-size="10.00">stdbool.h</text>
</a>
</g>
</g>
<!-- Node8&#45;&gt;Node9 -->
<g id="edge8" class="edge">
<title>Node8&#45;&gt;Node9</title>
<path fill="none" stroke="midnightblue" d="M200.09,-56.08C207.66,-48.22 218.88,-36.57 228.01,-27.08"/>
<polygon fill="midnightblue" stroke="midnightblue" points="230.66,-29.38 235.07,-19.75 225.62,-24.53 230.66,-29.38"/>
</g>
<!-- Node10&#45;&gt;Node8 -->
<g id="edge13" class="edge">
<title>Node10&#45;&gt;Node8</title>
<path fill="none" stroke="midnightblue" d="M281.31,-112.32C264.15,-103.66 237.55,-90.24 217.75,-80.25"/>
<polygon fill="midnightblue" stroke="midnightblue" points="219.15,-77.04 208.65,-75.65 216,-83.28 219.15,-77.04"/>
</g>
</g>
</svg>
