<?xml version="1.0" encoding="UTF-8" standalone="no"?>
<!DOCTYPE svg PUBLIC "-//W3C//DTD SVG 1.1//EN"
 "http://www.w3.org/Graphics/SVG/1.1/DTD/svg11.dtd">
<!-- Generated by graphviz version 2.44.0 (20200408.0750)
 -->
<!-- Title: graphemebreak.h Pages: 1 -->
<svg width="162pt" height="84pt"
 viewBox="0.00 0.00 161.50 84.00" xmlns="http://www.w3.org/2000/svg" xmlns:xlink="http://www.w3.org/1999/xlink">
<g id="graph0" class="graph" transform="scale(1 1) rotate(0) translate(4 80)">
<title>graphemebreak.h</title>
<polygon fill="white" stroke="transparent" points="-4,4 -4,-80 157.5,-80 157.5,4 -4,4"/>
<!-- Node1 -->
<g id="node1" class="node">
<title>Node1</title>
<g id="a_node1"><a xlink:title=" ">
<polygon fill="#bfbfbf" stroke="black" points="23,-56.5 23,-75.5 115,-75.5 115,-56.5 23,-56.5"/>
<text text-anchor="middle" x="69" y="-63.5" font-family="Helvetica,sans-Serif" font-size="10.00">graphemebreak.h</text>
</a>
</g>
</g>
<!-- Node2 -->
<g id="node2" class="node">
<title>Node2</title>
<g id="a_node2"><a xlink:title=" ">
<polygon fill="white" stroke="#bfbfbf" points="0,-0.5 0,-19.5 52,-19.5 52,-0.5 0,-0.5"/>
<text text-anchor="middle" x="26" y="-7.5" font-family="Helvetica,sans-Serif" font-size="10.00">stddef.h</text>
</a>
</g>
</g>
<!-- Node1&#45;&gt;Node2 -->
<g id="edge1" class="edge">
<title>Node1&#45;&gt;Node2</title>
<path fill="none" stroke="midnightblue" d="M61.9,-56.08C55.76,-48.38 46.73,-37.03 39.26,-27.65"/>
<polygon fill="midnightblue" stroke="midnightblue" points="41.94,-25.39 32.97,-19.75 36.46,-29.75 41.94,-25.39"/>
</g>
<!-- Node3 -->
<g id="node3" class="node">
<title>Node3</title>
<g id="a_node3"><a xlink:href="unibreakbase_8h.html" target="_top" xlink:title=" ">
<polygon fill="white" stroke="black" points="70.5,-0.5 70.5,-19.5 153.5,-19.5 153.5,-0.5 70.5,-0.5"/>
<text text-anchor="middle" x="112" y="-7.5" font-family="Helvetica,sans-Serif" font-size="10.00">unibreakbase.h</text>
</a>
</g>
</g>
<!-- Node1&#45;&gt;Node3 -->
<g id="edge2" class="edge">
<title>Node1&#45;&gt;Node3</title>
<path fill="none" stroke="midnightblue" d="M76.1,-56.08C82.24,-48.38 91.27,-37.03 98.74,-27.65"/>
<polygon fill="midnightblue" stroke="midnightblue" points="101.54,-29.75 105.03,-19.75 96.06,-25.39 101.54,-29.75"/>
</g>
</g>
</svg>
