<?xml version="1.0" encoding="UTF-8" standalone="no"?>
<!DOCTYPE svg PUBLIC "-//W3C//DTD SVG 1.1//EN"
 "http://www.w3.org/Graphics/SVG/1.1/DTD/svg11.dtd">
<!-- Generated by graphviz version 2.44.0 (20200408.0750)
 -->
<!-- Title: graphemebreakdef.h Pages: 1 -->
<svg width="118pt" height="140pt"
 viewBox="0.00 0.00 118.00 140.00" xmlns="http://www.w3.org/2000/svg" xmlns:xlink="http://www.w3.org/1999/xlink">
<g id="graph0" class="graph" transform="scale(1 1) rotate(0) translate(4 136)">
<title>graphemebreakdef.h</title>
<polygon fill="white" stroke="transparent" points="-4,4 -4,-136 114,-136 114,4 -4,4"/>
<!-- Node1 -->
<g id="node1" class="node">
<title>Node1</title>
<g id="a_node1"><a xlink:title=" ">
<polygon fill="#bfbfbf" stroke="black" points="2.5,-112.5 2.5,-131.5 107.5,-131.5 107.5,-112.5 2.5,-112.5"/>
<text text-anchor="middle" x="55" y="-119.5" font-family="Helvetica,sans-Serif" font-size="10.00">graphemebreakdef.h</text>
</a>
</g>
</g>
<!-- Node2 -->
<g id="node2" class="node">
<title>Node2</title>
<g id="a_node2"><a xlink:href="graphemebreakdata_8c.html" target="_top" xlink:title=" ">
<polygon fill="white" stroke="black" points="0,-56.5 0,-75.5 110,-75.5 110,-56.5 0,-56.5"/>
<text text-anchor="middle" x="55" y="-63.5" font-family="Helvetica,sans-Serif" font-size="10.00">graphemebreakdata.c</text>
</a>
</g>
</g>
<!-- Node1&#45;&gt;Node2 -->
<g id="edge1" class="edge">
<title>Node1&#45;&gt;Node2</title>
<path fill="none" stroke="midnightblue" d="M55,-101.8C55,-92.91 55,-82.78 55,-75.75"/>
<polygon fill="midnightblue" stroke="midnightblue" points="51.5,-102.08 55,-112.08 58.5,-102.08 51.5,-102.08"/>
</g>
<!-- Node3 -->
<g id="node3" class="node">
<title>Node3</title>
<g id="a_node3"><a xlink:href="graphemebreak_8c.html" target="_top" xlink:title=" ">
<polygon fill="white" stroke="black" points="9,-0.5 9,-19.5 101,-19.5 101,-0.5 9,-0.5"/>
<text text-anchor="middle" x="55" y="-7.5" font-family="Helvetica,sans-Serif" font-size="10.00">graphemebreak.c</text>
</a>
</g>
</g>
<!-- Node2&#45;&gt;Node3 -->
<g id="edge2" class="edge">
<title>Node2&#45;&gt;Node3</title>
<path fill="none" stroke="midnightblue" d="M55,-45.8C55,-36.91 55,-26.78 55,-19.75"/>
<polygon fill="midnightblue" stroke="midnightblue" points="51.5,-46.08 55,-56.08 58.5,-46.08 51.5,-46.08"/>
</g>
</g>
</svg>
