<?xml version="1.0" encoding="UTF-8" standalone="no"?>
<!DOCTYPE svg PUBLIC "-//W3C//DTD SVG 1.1//EN"
 "http://www.w3.org/Graphics/SVG/1.1/DTD/svg11.dtd">
<!-- Generated by graphviz version 2.44.0 (20200408.0750)
 -->
<!-- Title: linebreak.c Pages: 1 -->
<svg width="320pt" height="196pt"
 viewBox="0.00 0.00 320.00 196.00" xmlns="http://www.w3.org/2000/svg" xmlns:xlink="http://www.w3.org/1999/xlink">
<g id="graph0" class="graph" transform="scale(1 1) rotate(0) translate(4 192)">
<title>linebreak.c</title>
<polygon fill="white" stroke="transparent" points="-4,4 -4,-192 316,-192 316,4 -4,4"/>
<!-- Node1 -->
<g id="node1" class="node">
<title>Node1</title>
<g id="a_node1"><a xlink:title=" ">
<polygon fill="#bfbfbf" stroke="black" points="97,-168.5 97,-187.5 161,-187.5 161,-168.5 97,-168.5"/>
<text text-anchor="middle" x="129" y="-175.5" font-family="Helvetica,sans-Serif" font-size="10.00">linebreak.c</text>
</a>
</g>
</g>
<!-- Node2 -->
<g id="node2" class="node">
<title>Node2</title>
<g id="a_node2"><a xlink:title=" ">
<polygon fill="white" stroke="#bfbfbf" points="0,-112.5 0,-131.5 52,-131.5 52,-112.5 0,-112.5"/>
<text text-anchor="middle" x="26" y="-119.5" font-family="Helvetica,sans-Serif" font-size="10.00">assert.h</text>
</a>
</g>
</g>
<!-- Node1&#45;&gt;Node2 -->
<g id="edge1" class="edge">
<title>Node1&#45;&gt;Node2</title>
<path fill="none" stroke="midnightblue" d="M112.45,-168.32C96.01,-159.7 70.57,-146.36 51.53,-136.39"/>
<polygon fill="midnightblue" stroke="midnightblue" points="52.99,-133.2 42.51,-131.65 49.74,-139.4 52.99,-133.2"/>
</g>
<!-- Node3 -->
<g id="node3" class="node">
<title>Node3</title>
<g id="a_node3"><a xlink:title=" ">
<polygon fill="white" stroke="#bfbfbf" points="84,-0.5 84,-19.5 136,-19.5 136,-0.5 84,-0.5"/>
<text text-anchor="middle" x="110" y="-7.5" font-family="Helvetica,sans-Serif" font-size="10.00">stddef.h</text>
</a>
</g>
</g>
<!-- Node1&#45;&gt;Node3 -->
<g id="edge2" class="edge">
<title>Node1&#45;&gt;Node3</title>
<path fill="none" stroke="midnightblue" d="M124.58,-168.33C115.05,-148.65 93.82,-98.98 99,-56 100.07,-47.11 102.29,-37.43 104.46,-29.34"/>
<polygon fill="midnightblue" stroke="midnightblue" points="107.89,-30.09 107.27,-19.51 101.16,-28.17 107.89,-30.09"/>
</g>
<!-- Node4 -->
<g id="node4" class="node">
<title>Node4</title>
<g id="a_node4"><a xlink:title=" ">
<polygon fill="white" stroke="#bfbfbf" points="252.5,-112.5 252.5,-131.5 301.5,-131.5 301.5,-112.5 252.5,-112.5"/>
<text text-anchor="middle" x="277" y="-119.5" font-family="Helvetica,sans-Serif" font-size="10.00">string.h</text>
</a>
</g>
</g>
<!-- Node1&#45;&gt;Node4 -->
<g id="edge3" class="edge">
<title>Node1&#45;&gt;Node4</title>
<path fill="none" stroke="midnightblue" d="M152.45,-168.44C177.13,-159.44 216.19,-145.19 243.98,-135.05"/>
<polygon fill="midnightblue" stroke="midnightblue" points="245.46,-138.23 253.66,-131.52 243.06,-131.66 245.46,-138.23"/>
</g>
<!-- Node5 -->
<g id="node5" class="node">
<title>Node5</title>
<g id="a_node5"><a xlink:href="linebreak_8h.html" target="_top" xlink:title=" ">
<polygon fill="white" stroke="black" points="108,-56.5 108,-75.5 172,-75.5 172,-56.5 108,-56.5"/>
<text text-anchor="middle" x="140" y="-63.5" font-family="Helvetica,sans-Serif" font-size="10.00">linebreak.h</text>
</a>
</g>
</g>
<!-- Node1&#45;&gt;Node5 -->
<g id="edge4" class="edge">
<title>Node1&#45;&gt;Node5</title>
<path fill="none" stroke="midnightblue" d="M129.86,-168.37C131.64,-150.62 135.73,-109.67 138.14,-85.6"/>
<polygon fill="midnightblue" stroke="midnightblue" points="141.63,-85.89 139.14,-75.59 134.66,-85.19 141.63,-85.89"/>
</g>
<!-- Node7 -->
<g id="node7" class="node">
<title>Node7</title>
<g id="a_node7"><a xlink:href="linebreakdef_8h.html" target="_top" xlink:title=" ">
<polygon fill="white" stroke="black" points="157.5,-112.5 157.5,-131.5 234.5,-131.5 234.5,-112.5 157.5,-112.5"/>
<text text-anchor="middle" x="196" y="-119.5" font-family="Helvetica,sans-Serif" font-size="10.00">linebreakdef.h</text>
</a>
</g>
</g>
<!-- Node1&#45;&gt;Node7 -->
<g id="edge7" class="edge">
<title>Node1&#45;&gt;Node7</title>
<path fill="none" stroke="midnightblue" d="M139.76,-168.32C149.77,-160.26 164.89,-148.08 176.93,-138.37"/>
<polygon fill="midnightblue" stroke="midnightblue" points="179.45,-140.83 185.04,-131.83 175.06,-135.38 179.45,-140.83"/>
</g>
<!-- Node5&#45;&gt;Node3 -->
<g id="edge5" class="edge">
<title>Node5&#45;&gt;Node3</title>
<path fill="none" stroke="midnightblue" d="M135.05,-56.08C130.9,-48.61 124.85,-37.72 119.73,-28.52"/>
<polygon fill="midnightblue" stroke="midnightblue" points="122.78,-26.79 114.86,-19.75 116.66,-30.19 122.78,-26.79"/>
</g>
<!-- Node6 -->
<g id="node6" class="node">
<title>Node6</title>
<g id="a_node6"><a xlink:href="unibreakbase_8h.html" target="_top" xlink:title=" ">
<polygon fill="white" stroke="black" points="154.5,-0.5 154.5,-19.5 237.5,-19.5 237.5,-0.5 154.5,-0.5"/>
<text text-anchor="middle" x="196" y="-7.5" font-family="Helvetica,sans-Serif" font-size="10.00">unibreakbase.h</text>
</a>
</g>
</g>
<!-- Node5&#45;&gt;Node6 -->
<g id="edge6" class="edge">
<title>Node5&#45;&gt;Node6</title>
<path fill="none" stroke="midnightblue" d="M149,-56.32C157.19,-48.42 169.51,-36.55 179.47,-26.94"/>
<polygon fill="midnightblue" stroke="midnightblue" points="182.07,-29.29 186.84,-19.83 177.21,-24.26 182.07,-29.29"/>
</g>
<!-- Node8 -->
<g id="node8" class="node">
<title>Node8</title>
<g id="a_node8"><a xlink:href="unibreakdef_8h.html" target="_top" xlink:title=" ">
<polygon fill="white" stroke="black" points="190.5,-56.5 190.5,-75.5 265.5,-75.5 265.5,-56.5 190.5,-56.5"/>
<text text-anchor="middle" x="228" y="-63.5" font-family="Helvetica,sans-Serif" font-size="10.00">unibreakdef.h</text>
</a>
</g>
</g>
<!-- Node7&#45;&gt;Node8 -->
<g id="edge8" class="edge">
<title>Node7&#45;&gt;Node8</title>
<path fill="none" stroke="midnightblue" d="M201.28,-112.08C205.71,-104.61 212.16,-93.72 217.62,-84.52"/>
<polygon fill="midnightblue" stroke="midnightblue" points="220.73,-86.14 222.81,-75.75 214.71,-82.57 220.73,-86.14"/>
</g>
<!-- Node8&#45;&gt;Node3 -->
<g id="edge10" class="edge">
<title>Node8&#45;&gt;Node3</title>
<path fill="none" stroke="midnightblue" d="M209.3,-56.44C190.06,-47.64 159.85,-33.81 137.8,-23.72"/>
<polygon fill="midnightblue" stroke="midnightblue" points="139.16,-20.5 128.61,-19.52 136.25,-26.86 139.16,-20.5"/>
</g>
<!-- Node8&#45;&gt;Node6 -->
<g id="edge11" class="edge">
<title>Node8&#45;&gt;Node6</title>
<path fill="none" stroke="midnightblue" d="M222.72,-56.08C218.29,-48.61 211.84,-37.72 206.38,-28.52"/>
<polygon fill="midnightblue" stroke="midnightblue" points="209.29,-26.57 201.19,-19.75 203.27,-30.14 209.29,-26.57"/>
</g>
<!-- Node9 -->
<g id="node9" class="node">
<title>Node9</title>
<g id="a_node9"><a xlink:title=" ">
<polygon fill="white" stroke="#bfbfbf" points="256,-0.5 256,-19.5 312,-19.5 312,-0.5 256,-0.5"/>
<text text-anchor="middle" x="284" y="-7.5" font-family="Helvetica,sans-Serif" font-size="10.00">stdbool.h</text>
</a>
</g>
</g>
<!-- Node8&#45;&gt;Node9 -->
<g id="edge9" class="edge">
<title>Node8&#45;&gt;Node9</title>
<path fill="none" stroke="midnightblue" d="M237,-56.32C245.19,-48.42 257.51,-36.55 267.47,-26.94"/>
<polygon fill="midnightblue" stroke="midnightblue" points="270.07,-29.29 274.84,-19.83 265.21,-24.26 270.07,-29.29"/>
</g>
</g>
</svg>
