<?xml version="1.0" encoding="UTF-8" standalone="no"?>
<!DOCTYPE svg PUBLIC "-//W3C//DTD SVG 1.1//EN"
 "http://www.w3.org/Graphics/SVG/1.1/DTD/svg11.dtd">
<!-- Generated by graphviz version 2.44.0 (20200408.0750)
 -->
<!-- Title: linebreakdef.c Pages: 1 -->
<svg width="236pt" height="196pt"
 viewBox="0.00 0.00 235.50 196.00" xmlns="http://www.w3.org/2000/svg" xmlns:xlink="http://www.w3.org/1999/xlink">
<g id="graph0" class="graph" transform="scale(1 1) rotate(0) translate(4 192)">
<title>linebreakdef.c</title>
<polygon fill="white" stroke="transparent" points="-4,4 -4,-192 231.5,-192 231.5,4 -4,4"/>
<!-- Node1 -->
<g id="node1" class="node">
<title>Node1</title>
<g id="a_node1"><a xlink:title=" ">
<polygon fill="#bfbfbf" stroke="black" points="46,-168.5 46,-187.5 123,-187.5 123,-168.5 46,-168.5"/>
<text text-anchor="middle" x="84.5" y="-175.5" font-family="Helvetica,sans-Serif" font-size="10.00">linebreakdef.c</text>
</a>
</g>
</g>
<!-- Node2 -->
<g id="node2" class="node">
<title>Node2</title>
<g id="a_node2"><a xlink:href="linebreak_8h.html" target="_top" xlink:title=" ">
<polygon fill="white" stroke="black" points="9.5,-56.5 9.5,-75.5 73.5,-75.5 73.5,-56.5 9.5,-56.5"/>
<text text-anchor="middle" x="41.5" y="-63.5" font-family="Helvetica,sans-Serif" font-size="10.00">linebreak.h</text>
</a>
</g>
</g>
<!-- Node1&#45;&gt;Node2 -->
<g id="edge1" class="edge">
<title>Node1&#45;&gt;Node2</title>
<path fill="none" stroke="midnightblue" d="M81.13,-168.37C74.12,-150.46 57.89,-108.92 48.52,-84.95"/>
<polygon fill="midnightblue" stroke="midnightblue" points="51.76,-83.63 44.86,-75.59 45.24,-86.18 51.76,-83.63"/>
</g>
<!-- Node5 -->
<g id="node5" class="node">
<title>Node5</title>
<g id="a_node5"><a xlink:href="linebreakdef_8h.html" target="_top" xlink:title=" ">
<polygon fill="white" stroke="black" points="85,-112.5 85,-131.5 162,-131.5 162,-112.5 85,-112.5"/>
<text text-anchor="middle" x="123.5" y="-119.5" font-family="Helvetica,sans-Serif" font-size="10.00">linebreakdef.h</text>
</a>
</g>
</g>
<!-- Node1&#45;&gt;Node5 -->
<g id="edge4" class="edge">
<title>Node1&#45;&gt;Node5</title>
<path fill="none" stroke="midnightblue" d="M90.94,-168.08C96.45,-160.46 104.53,-149.26 111.26,-139.94"/>
<polygon fill="midnightblue" stroke="midnightblue" points="114.16,-141.91 117.18,-131.75 108.49,-137.81 114.16,-141.91"/>
</g>
<!-- Node3 -->
<g id="node3" class="node">
<title>Node3</title>
<g id="a_node3"><a xlink:title=" ">
<polygon fill="white" stroke="#bfbfbf" points="101.5,-0.5 101.5,-19.5 153.5,-19.5 153.5,-0.5 101.5,-0.5"/>
<text text-anchor="middle" x="127.5" y="-7.5" font-family="Helvetica,sans-Serif" font-size="10.00">stddef.h</text>
</a>
</g>
</g>
<!-- Node2&#45;&gt;Node3 -->
<g id="edge2" class="edge">
<title>Node2&#45;&gt;Node3</title>
<path fill="none" stroke="midnightblue" d="M55.32,-56.32C68.73,-47.9 89.32,-34.97 105.09,-25.07"/>
<polygon fill="midnightblue" stroke="midnightblue" points="107.11,-27.94 113.72,-19.65 103.39,-22.01 107.11,-27.94"/>
</g>
<!-- Node4 -->
<g id="node4" class="node">
<title>Node4</title>
<g id="a_node4"><a xlink:href="unibreakbase_8h.html" target="_top" xlink:title=" ">
<polygon fill="white" stroke="black" points="0,-0.5 0,-19.5 83,-19.5 83,-0.5 0,-0.5"/>
<text text-anchor="middle" x="41.5" y="-7.5" font-family="Helvetica,sans-Serif" font-size="10.00">unibreakbase.h</text>
</a>
</g>
</g>
<!-- Node2&#45;&gt;Node4 -->
<g id="edge3" class="edge">
<title>Node2&#45;&gt;Node4</title>
<path fill="none" stroke="midnightblue" d="M41.5,-56.08C41.5,-49.01 41.5,-38.86 41.5,-29.99"/>
<polygon fill="midnightblue" stroke="midnightblue" points="45,-29.75 41.5,-19.75 38,-29.75 45,-29.75"/>
</g>
<!-- Node6 -->
<g id="node6" class="node">
<title>Node6</title>
<g id="a_node6"><a xlink:href="unibreakdef_8h.html" target="_top" xlink:title=" ">
<polygon fill="white" stroke="black" points="92,-56.5 92,-75.5 167,-75.5 167,-56.5 92,-56.5"/>
<text text-anchor="middle" x="129.5" y="-63.5" font-family="Helvetica,sans-Serif" font-size="10.00">unibreakdef.h</text>
</a>
</g>
</g>
<!-- Node5&#45;&gt;Node6 -->
<g id="edge5" class="edge">
<title>Node5&#45;&gt;Node6</title>
<path fill="none" stroke="midnightblue" d="M124.49,-112.08C125.29,-104.93 126.43,-94.64 127.42,-85.69"/>
<polygon fill="midnightblue" stroke="midnightblue" points="130.9,-86.08 128.53,-75.75 123.94,-85.3 130.9,-86.08"/>
</g>
<!-- Node6&#45;&gt;Node3 -->
<g id="edge7" class="edge">
<title>Node6&#45;&gt;Node3</title>
<path fill="none" stroke="midnightblue" d="M129.17,-56.08C128.91,-49.01 128.53,-38.86 128.2,-29.99"/>
<polygon fill="midnightblue" stroke="midnightblue" points="131.69,-29.61 127.82,-19.75 124.7,-29.87 131.69,-29.61"/>
</g>
<!-- Node6&#45;&gt;Node4 -->
<g id="edge8" class="edge">
<title>Node6&#45;&gt;Node4</title>
<path fill="none" stroke="midnightblue" d="M115.36,-56.32C101.63,-47.9 80.56,-34.97 64.44,-25.07"/>
<polygon fill="midnightblue" stroke="midnightblue" points="65.96,-21.9 55.6,-19.65 62.3,-27.87 65.96,-21.9"/>
</g>
<!-- Node7 -->
<g id="node7" class="node">
<title>Node7</title>
<g id="a_node7"><a xlink:title=" ">
<polygon fill="white" stroke="#bfbfbf" points="171.5,-0.5 171.5,-19.5 227.5,-19.5 227.5,-0.5 171.5,-0.5"/>
<text text-anchor="middle" x="199.5" y="-7.5" font-family="Helvetica,sans-Serif" font-size="10.00">stdbool.h</text>
</a>
</g>
</g>
<!-- Node6&#45;&gt;Node7 -->
<g id="edge6" class="edge">
<title>Node6&#45;&gt;Node7</title>
<path fill="none" stroke="midnightblue" d="M140.75,-56.32C151.3,-48.18 167.3,-35.84 179.94,-26.09"/>
<polygon fill="midnightblue" stroke="midnightblue" points="182.27,-28.71 188.05,-19.83 177.99,-23.17 182.27,-28.71"/>
</g>
</g>
</svg>
