<?xml version="1.0" encoding="UTF-8" standalone="no"?>
<!DOCTYPE svg PUBLIC "-//W3C//DTD SVG 1.1//EN"
 "http://www.w3.org/Graphics/SVG/1.1/DTD/svg11.dtd">
<!-- Generated by graphviz version 2.44.0 (20200408.0750)
 -->
<!-- Title: unibreakbase.h Pages: 1 -->
<svg width="741pt" height="252pt"
 viewBox="0.00 0.00 741.02 252.00" xmlns="http://www.w3.org/2000/svg" xmlns:xlink="http://www.w3.org/1999/xlink">
<g id="graph0" class="graph" transform="scale(1 1) rotate(0) translate(4 248)">
<title>unibreakbase.h</title>
<polygon fill="white" stroke="transparent" points="-4,4 -4,-248 737.02,-248 737.02,4 -4,4"/>
<!-- Node1 -->
<g id="node1" class="node">
<title>Node1</title>
<g id="a_node1"><a xlink:title=" ">
<polygon fill="#bfbfbf" stroke="black" points="435.46,-224.5 435.46,-243.5 518.46,-243.5 518.46,-224.5 435.46,-224.5"/>
<text text-anchor="middle" x="476.96" y="-231.5" font-family="Helvetica,sans-Serif" font-size="10.00">unibreakbase.h</text>
</a>
</g>
</g>
<!-- Node2 -->
<g id="node2" class="node">
<title>Node2</title>
<g id="a_node2"><a xlink:href="unibreakdef_8h.html" target="_top" xlink:title=" ">
<polygon fill="white" stroke="black" points="240.46,-168.5 240.46,-187.5 315.46,-187.5 315.46,-168.5 240.46,-168.5"/>
<text text-anchor="middle" x="277.96" y="-175.5" font-family="Helvetica,sans-Serif" font-size="10.00">unibreakdef.h</text>
</a>
</g>
</g>
<!-- Node1&#45;&gt;Node2 -->
<g id="edge1" class="edge">
<title>Node1&#45;&gt;Node2</title>
<path fill="none" stroke="midnightblue" d="M435.32,-221.7C397.76,-211.51 343.35,-196.74 309.35,-187.52"/>
<polygon fill="midnightblue" stroke="midnightblue" points="434.86,-225.2 445.43,-224.44 436.7,-218.45 434.86,-225.2"/>
</g>
<!-- Node16 -->
<g id="node16" class="node">
<title>Node16</title>
<g id="a_node16"><a xlink:href="graphemebreak_8h.html" target="_top" xlink:title=" ">
<polygon fill="white" stroke="black" points="504.96,-168.5 504.96,-187.5 596.96,-187.5 596.96,-168.5 504.96,-168.5"/>
<text text-anchor="middle" x="550.96" y="-175.5" font-family="Helvetica,sans-Serif" font-size="10.00">graphemebreak.h</text>
</a>
</g>
</g>
<!-- Node1&#45;&gt;Node16 -->
<g id="edge19" class="edge">
<title>Node1&#45;&gt;Node16</title>
<path fill="none" stroke="midnightblue" d="M497,-218.38C510.37,-208.62 527.52,-196.11 538.86,-187.83"/>
<polygon fill="midnightblue" stroke="midnightblue" points="494.87,-215.6 488.85,-224.32 498.99,-221.26 494.87,-215.6"/>
</g>
<!-- Node17 -->
<g id="node17" class="node">
<title>Node17</title>
<g id="a_node17"><a xlink:href="linebreak_8h.html" target="_top" xlink:title=" ">
<polygon fill="white" stroke="black" points="559.96,-112.5 559.96,-131.5 623.96,-131.5 623.96,-112.5 559.96,-112.5"/>
<text text-anchor="middle" x="591.96" y="-119.5" font-family="Helvetica,sans-Serif" font-size="10.00">linebreak.h</text>
</a>
</g>
</g>
<!-- Node1&#45;&gt;Node17 -->
<g id="edge21" class="edge">
<title>Node1&#45;&gt;Node17</title>
<path fill="none" stroke="midnightblue" d="M478.32,-214.29C480.24,-200.13 484.86,-180.96 495.96,-168 512.37,-148.85 538.71,-137.31 559.65,-130.72"/>
<polygon fill="midnightblue" stroke="midnightblue" points="474.82,-214.06 477.29,-224.37 481.79,-214.77 474.82,-214.06"/>
</g>
<!-- Node18 -->
<g id="node18" class="node">
<title>Node18</title>
<g id="a_node18"><a xlink:href="unibreakbase_8c.html" target="_top" xlink:title=" ">
<polygon fill="white" stroke="black" points="615.46,-168.5 615.46,-187.5 698.46,-187.5 698.46,-168.5 615.46,-168.5"/>
<text text-anchor="middle" x="656.96" y="-175.5" font-family="Helvetica,sans-Serif" font-size="10.00">unibreakbase.c</text>
</a>
</g>
</g>
<!-- Node1&#45;&gt;Node18 -->
<g id="edge24" class="edge">
<title>Node1&#45;&gt;Node18</title>
<path fill="none" stroke="midnightblue" d="M515.07,-221.57C549.03,-211.38 597.95,-196.7 628.58,-187.52"/>
<polygon fill="midnightblue" stroke="midnightblue" points="514.06,-218.22 505.49,-224.44 516.07,-224.92 514.06,-218.22"/>
</g>
<!-- Node19 -->
<g id="node19" class="node">
<title>Node19</title>
<g id="a_node19"><a xlink:href="wordbreak_8h.html" target="_top" xlink:title=" ">
<polygon fill="white" stroke="black" points="61.96,-168.5 61.96,-187.5 131.96,-187.5 131.96,-168.5 61.96,-168.5"/>
<text text-anchor="middle" x="96.96" y="-175.5" font-family="Helvetica,sans-Serif" font-size="10.00">wordbreak.h</text>
</a>
</g>
</g>
<!-- Node1&#45;&gt;Node19 -->
<g id="edge25" class="edge">
<title>Node1&#45;&gt;Node19</title>
<path fill="none" stroke="midnightblue" d="M425.05,-225.62C346.45,-214.45 199.3,-193.54 132.08,-183.99"/>
<polygon fill="midnightblue" stroke="midnightblue" points="424.82,-229.12 435.21,-227.07 425.8,-222.19 424.82,-229.12"/>
</g>
<!-- Node3 -->
<g id="node3" class="node">
<title>Node3</title>
<g id="a_node3"><a xlink:href="emojidef_8h.html" target="_top" xlink:title=" ">
<polygon fill="white" stroke="black" points="205.96,-56.5 205.96,-75.5 267.96,-75.5 267.96,-56.5 205.96,-56.5"/>
<text text-anchor="middle" x="236.96" y="-63.5" font-family="Helvetica,sans-Serif" font-size="10.00">emojidef.h</text>
</a>
</g>
</g>
<!-- Node2&#45;&gt;Node3 -->
<g id="edge2" class="edge">
<title>Node2&#45;&gt;Node3</title>
<path fill="none" stroke="midnightblue" d="M271.25,-159C262.31,-135 246.83,-93.47 240.17,-75.59"/>
<polygon fill="midnightblue" stroke="midnightblue" points="267.97,-160.22 274.75,-168.37 274.53,-157.78 267.97,-160.22"/>
</g>
<!-- Node5 -->
<g id="node5" class="node">
<title>Node5</title>
<g id="a_node5"><a xlink:href="graphemebreak_8c.html" target="_top" xlink:title=" ">
<polygon fill="white" stroke="black" points="308.96,-0.5 308.96,-19.5 400.96,-19.5 400.96,-0.5 308.96,-0.5"/>
<text text-anchor="middle" x="354.96" y="-7.5" font-family="Helvetica,sans-Serif" font-size="10.00">graphemebreak.c</text>
</a>
</g>
</g>
<!-- Node2&#45;&gt;Node5 -->
<g id="edge9" class="edge">
<title>Node2&#45;&gt;Node5</title>
<path fill="none" stroke="midnightblue" d="M281.13,-158.13C285.84,-133.44 296.21,-89.4 314.96,-56 322.95,-41.78 336.06,-28.18 345.08,-19.73"/>
<polygon fill="midnightblue" stroke="midnightblue" points="277.63,-157.82 279.31,-168.28 284.52,-159.06 277.63,-157.82"/>
</g>
<!-- Node6 -->
<g id="node6" class="node">
<title>Node6</title>
<g id="a_node6"><a xlink:href="wordbreak_8c.html" target="_top" xlink:title=" ">
<polygon fill="white" stroke="black" points="27.96,-0.5 27.96,-19.5 97.96,-19.5 97.96,-0.5 27.96,-0.5"/>
<text text-anchor="middle" x="62.96" y="-7.5" font-family="Helvetica,sans-Serif" font-size="10.00">wordbreak.c</text>
</a>
</g>
</g>
<!-- Node2&#45;&gt;Node6 -->
<g id="edge15" class="edge">
<title>Node2&#45;&gt;Node6</title>
<path fill="none" stroke="midnightblue" d="M230.01,-174.71C168.77,-170.67 67.96,-159.86 44.96,-132 17.39,-98.59 45.19,-41.59 57.62,-19.81"/>
<polygon fill="midnightblue" stroke="midnightblue" points="230.02,-178.22 240.22,-175.35 230.46,-171.23 230.02,-178.22"/>
</g>
<!-- Node7 -->
<g id="node7" class="node">
<title>Node7</title>
<g id="a_node7"><a xlink:href="graphemebreakdef_8h.html" target="_top" xlink:title=" ">
<polygon fill="white" stroke="black" points="326.46,-112.5 326.46,-131.5 431.46,-131.5 431.46,-112.5 326.46,-112.5"/>
<text text-anchor="middle" x="378.96" y="-119.5" font-family="Helvetica,sans-Serif" font-size="10.00">graphemebreakdef.h</text>
</a>
</g>
</g>
<!-- Node2&#45;&gt;Node7 -->
<g id="edge6" class="edge">
<title>Node2&#45;&gt;Node7</title>
<path fill="none" stroke="midnightblue" d="M303.05,-163.59C321.72,-153.61 346.67,-140.27 362.78,-131.65"/>
<polygon fill="midnightblue" stroke="midnightblue" points="301.36,-160.52 294.19,-168.32 304.66,-166.7 301.36,-160.52"/>
</g>
<!-- Node9 -->
<g id="node9" class="node">
<title>Node9</title>
<g id="a_node9"><a xlink:href="linebreakdef_8h.html" target="_top" xlink:title=" ">
<polygon fill="white" stroke="black" points="460.46,-112.5 460.46,-131.5 537.46,-131.5 537.46,-112.5 460.46,-112.5"/>
<text text-anchor="middle" x="498.96" y="-119.5" font-family="Helvetica,sans-Serif" font-size="10.00">linebreakdef.h</text>
</a>
</g>
</g>
<!-- Node2&#45;&gt;Node9 -->
<g id="edge10" class="edge">
<title>Node2&#45;&gt;Node9</title>
<path fill="none" stroke="midnightblue" d="M322.89,-166.02C364.63,-155.82 425.95,-140.84 464.11,-131.52"/>
<polygon fill="midnightblue" stroke="midnightblue" points="321.87,-162.67 312.98,-168.44 323.53,-169.47 321.87,-162.67"/>
</g>
<!-- Node13 -->
<g id="node13" class="node">
<title>Node13</title>
<g id="a_node13"><a xlink:href="unibreakdef_8c.html" target="_top" xlink:title=" ">
<polygon fill="white" stroke="black" points="155.46,-112.5 155.46,-131.5 230.46,-131.5 230.46,-112.5 155.46,-112.5"/>
<text text-anchor="middle" x="192.96" y="-119.5" font-family="Helvetica,sans-Serif" font-size="10.00">unibreakdef.c</text>
</a>
</g>
</g>
<!-- Node2&#45;&gt;Node13 -->
<g id="edge14" class="edge">
<title>Node2&#45;&gt;Node13</title>
<path fill="none" stroke="midnightblue" d="M255.77,-162.9C240.18,-153 219.83,-140.07 206.59,-131.65"/>
<polygon fill="midnightblue" stroke="midnightblue" points="253.99,-165.92 264.31,-168.32 257.74,-160.01 253.99,-165.92"/>
</g>
<!-- Node14 -->
<g id="node14" class="node">
<title>Node14</title>
<g id="a_node14"><a xlink:href="wordbreakdef_8h.html" target="_top" xlink:title=" ">
<polygon fill="white" stroke="black" points="54.46,-112.5 54.46,-131.5 137.46,-131.5 137.46,-112.5 54.46,-112.5"/>
<text text-anchor="middle" x="95.96" y="-119.5" font-family="Helvetica,sans-Serif" font-size="10.00">wordbreakdef.h</text>
</a>
</g>
</g>
<!-- Node2&#45;&gt;Node14 -->
<g id="edge16" class="edge">
<title>Node2&#45;&gt;Node14</title>
<path fill="none" stroke="midnightblue" d="M239.43,-165.57C205.1,-155.38 155.63,-140.7 124.67,-131.52"/>
<polygon fill="midnightblue" stroke="midnightblue" points="238.54,-168.95 249.13,-168.44 240.53,-162.24 238.54,-168.95"/>
</g>
<!-- Node4 -->
<g id="node4" class="node">
<title>Node4</title>
<g id="a_node4"><a xlink:href="emojidef_8c.html" target="_top" xlink:title=" ">
<polygon fill="white" stroke="black" points="205.96,-0.5 205.96,-19.5 267.96,-19.5 267.96,-0.5 205.96,-0.5"/>
<text text-anchor="middle" x="236.96" y="-7.5" font-family="Helvetica,sans-Serif" font-size="10.00">emojidef.c</text>
</a>
</g>
</g>
<!-- Node3&#45;&gt;Node4 -->
<g id="edge3" class="edge">
<title>Node3&#45;&gt;Node4</title>
<path fill="none" stroke="midnightblue" d="M236.96,-45.8C236.96,-36.91 236.96,-26.78 236.96,-19.75"/>
<polygon fill="midnightblue" stroke="midnightblue" points="233.46,-46.08 236.96,-56.08 240.46,-46.08 233.46,-46.08"/>
</g>
<!-- Node3&#45;&gt;Node5 -->
<g id="edge4" class="edge">
<title>Node3&#45;&gt;Node5</title>
<path fill="none" stroke="midnightblue" d="M264.86,-52.23C286.94,-42.13 317.14,-28.31 336.35,-19.52"/>
<polygon fill="midnightblue" stroke="midnightblue" points="263.3,-49.1 255.66,-56.44 266.21,-55.46 263.3,-49.1"/>
</g>
<!-- Node3&#45;&gt;Node6 -->
<g id="edge5" class="edge">
<title>Node3&#45;&gt;Node6</title>
<path fill="none" stroke="midnightblue" d="M199.7,-53.44C166.9,-43.26 119.88,-28.66 90.41,-19.52"/>
<polygon fill="midnightblue" stroke="midnightblue" points="198.81,-56.82 209.39,-56.44 200.88,-50.14 198.81,-56.82"/>
</g>
<!-- Node8 -->
<g id="node8" class="node">
<title>Node8</title>
<g id="a_node8"><a xlink:href="graphemebreakdata_8c.html" target="_top" xlink:title=" ">
<polygon fill="white" stroke="black" points="323.96,-56.5 323.96,-75.5 433.96,-75.5 433.96,-56.5 323.96,-56.5"/>
<text text-anchor="middle" x="378.96" y="-63.5" font-family="Helvetica,sans-Serif" font-size="10.00">graphemebreakdata.c</text>
</a>
</g>
</g>
<!-- Node7&#45;&gt;Node8 -->
<g id="edge7" class="edge">
<title>Node7&#45;&gt;Node8</title>
<path fill="none" stroke="midnightblue" d="M378.96,-101.8C378.96,-92.91 378.96,-82.78 378.96,-75.75"/>
<polygon fill="midnightblue" stroke="midnightblue" points="375.46,-102.08 378.96,-112.08 382.46,-102.08 375.46,-102.08"/>
</g>
<!-- Node8&#45;&gt;Node5 -->
<g id="edge8" class="edge">
<title>Node8&#45;&gt;Node5</title>
<path fill="none" stroke="midnightblue" d="M370.83,-46.69C366.78,-37.59 362.08,-27.01 358.85,-19.75"/>
<polygon fill="midnightblue" stroke="midnightblue" points="367.74,-48.37 375,-56.08 374.14,-45.52 367.74,-48.37"/>
</g>
<!-- Node10 -->
<g id="node10" class="node">
<title>Node10</title>
<g id="a_node10"><a xlink:href="linebreak_8c.html" target="_top" xlink:title=" ">
<polygon fill="white" stroke="black" points="648.96,-56.5 648.96,-75.5 712.96,-75.5 712.96,-56.5 648.96,-56.5"/>
<text text-anchor="middle" x="680.96" y="-63.5" font-family="Helvetica,sans-Serif" font-size="10.00">linebreak.c</text>
</a>
</g>
</g>
<!-- Node9&#45;&gt;Node10 -->
<g id="edge11" class="edge">
<title>Node9&#45;&gt;Node10</title>
<path fill="none" stroke="midnightblue" d="M537.5,-109.57C571.83,-99.38 621.3,-84.7 652.26,-75.52"/>
<polygon fill="midnightblue" stroke="midnightblue" points="536.39,-106.24 527.8,-112.44 538.39,-112.95 536.39,-106.24"/>
</g>
<!-- Node11 -->
<g id="node11" class="node">
<title>Node11</title>
<g id="a_node11"><a xlink:href="linebreakdata_8c.html" target="_top" xlink:title=" ">
<polygon fill="white" stroke="black" points="452.46,-56.5 452.46,-75.5 535.46,-75.5 535.46,-56.5 452.46,-56.5"/>
<text text-anchor="middle" x="493.96" y="-63.5" font-family="Helvetica,sans-Serif" font-size="10.00">linebreakdata.c</text>
</a>
</g>
</g>
<!-- Node9&#45;&gt;Node11 -->
<g id="edge12" class="edge">
<title>Node9&#45;&gt;Node11</title>
<path fill="none" stroke="midnightblue" d="M497.21,-102.1C496.38,-93.14 495.43,-82.86 494.77,-75.75"/>
<polygon fill="midnightblue" stroke="midnightblue" points="493.73,-102.45 498.14,-112.08 500.7,-101.8 493.73,-102.45"/>
</g>
<!-- Node12 -->
<g id="node12" class="node">
<title>Node12</title>
<g id="a_node12"><a xlink:href="linebreakdef_8c.html" target="_top" xlink:title=" ">
<polygon fill="white" stroke="black" points="553.46,-56.5 553.46,-75.5 630.46,-75.5 630.46,-56.5 553.46,-56.5"/>
<text text-anchor="middle" x="591.96" y="-63.5" font-family="Helvetica,sans-Serif" font-size="10.00">linebreakdef.c</text>
</a>
</g>
</g>
<!-- Node9&#45;&gt;Node12 -->
<g id="edge13" class="edge">
<title>Node9&#45;&gt;Node12</title>
<path fill="none" stroke="midnightblue" d="M522.77,-107.18C539.88,-97.24 562.43,-84.15 577.06,-75.65"/>
<polygon fill="midnightblue" stroke="midnightblue" points="520.8,-104.28 513.91,-112.32 524.31,-110.33 520.8,-104.28"/>
</g>
<!-- Node15 -->
<g id="node15" class="node">
<title>Node15</title>
<g id="a_node15"><a xlink:href="wordbreakdata_8c.html" target="_top" xlink:title=" ">
<polygon fill="white" stroke="black" points="54.46,-56.5 54.46,-75.5 143.46,-75.5 143.46,-56.5 54.46,-56.5"/>
<text text-anchor="middle" x="98.96" y="-63.5" font-family="Helvetica,sans-Serif" font-size="10.00">wordbreakdata.c</text>
</a>
</g>
</g>
<!-- Node14&#45;&gt;Node15 -->
<g id="edge17" class="edge">
<title>Node14&#45;&gt;Node15</title>
<path fill="none" stroke="midnightblue" d="M97.03,-101.8C97.52,-92.91 98.09,-82.78 98.48,-75.75"/>
<polygon fill="midnightblue" stroke="midnightblue" points="93.52,-101.9 96.46,-112.08 100.51,-102.29 93.52,-101.9"/>
</g>
<!-- Node15&#45;&gt;Node6 -->
<g id="edge18" class="edge">
<title>Node15&#45;&gt;Node6</title>
<path fill="none" stroke="midnightblue" d="M87.34,-47.57C81.15,-38.27 73.8,-27.25 68.8,-19.75"/>
<polygon fill="midnightblue" stroke="midnightblue" points="84.56,-49.7 93.02,-56.08 90.38,-45.82 84.56,-49.7"/>
</g>
<!-- Node16&#45;&gt;Node5 -->
<g id="edge20" class="edge">
<title>Node16&#45;&gt;Node5</title>
<path fill="none" stroke="midnightblue" d="M594.3,-165.61C658.4,-146.76 766.34,-106.15 721.96,-56 701.01,-32.32 494.98,-18.44 401.12,-13.3"/>
<polygon fill="midnightblue" stroke="midnightblue" points="593.07,-162.32 584.42,-168.44 595,-169.05 593.07,-162.32"/>
</g>
<!-- Node17&#45;&gt;Node10 -->
<g id="edge22" class="edge">
<title>Node17&#45;&gt;Node10</title>
<path fill="none" stroke="midnightblue" d="M615.2,-106.9C631.52,-97 652.83,-84.07 666.7,-75.65"/>
<polygon fill="midnightblue" stroke="midnightblue" points="613,-104.14 606.26,-112.32 616.63,-110.13 613,-104.14"/>
</g>
<!-- Node17&#45;&gt;Node12 -->
<g id="edge23" class="edge">
<title>Node17&#45;&gt;Node12</title>
<path fill="none" stroke="midnightblue" d="M591.96,-101.8C591.96,-92.91 591.96,-82.78 591.96,-75.75"/>
<polygon fill="midnightblue" stroke="midnightblue" points="588.46,-102.08 591.96,-112.08 595.46,-102.08 588.46,-102.08"/>
</g>
<!-- Node19&#45;&gt;Node6 -->
<g id="edge26" class="edge">
<title>Node19&#45;&gt;Node6</title>
<path fill="none" stroke="midnightblue" d="M53.84,-164.73C37.8,-157.84 21.25,-147.43 11.96,-132 -5.46,-103.06 -1.93,-86.79 11.96,-56 19.15,-40.07 35.08,-27.52 47.23,-19.76"/>
<polygon fill="midnightblue" stroke="midnightblue" points="52.58,-167.99 63.17,-168.39 55.13,-161.48 52.58,-167.99"/>
</g>
</g>
</svg>
