<?xml version="1.0" encoding="UTF-8" standalone="no"?>
<!DOCTYPE svg PUBLIC "-//W3C//DTD SVG 1.1//EN"
 "http://www.w3.org/Graphics/SVG/1.1/DTD/svg11.dtd">
<!-- Generated by graphviz version 2.44.0 (20200408.0750)
 -->
<!-- Title: unibreakdef.c Pages: 1 -->
<svg width="288pt" height="140pt"
 viewBox="0.00 0.00 287.50 140.00" xmlns="http://www.w3.org/2000/svg" xmlns:xlink="http://www.w3.org/1999/xlink">
<g id="graph0" class="graph" transform="scale(1 1) rotate(0) translate(4 136)">
<title>unibreakdef.c</title>
<polygon fill="white" stroke="transparent" points="-4,4 -4,-136 283.5,-136 283.5,4 -4,4"/>
<!-- Node1 -->
<g id="node1" class="node">
<title>Node1</title>
<g id="a_node1"><a xlink:title=" ">
<polygon fill="#bfbfbf" stroke="black" points="42.5,-112.5 42.5,-131.5 117.5,-131.5 117.5,-112.5 42.5,-112.5"/>
<text text-anchor="middle" x="80" y="-119.5" font-family="Helvetica,sans-Serif" font-size="10.00">unibreakdef.c</text>
</a>
</g>
</g>
<!-- Node2 -->
<g id="node2" class="node">
<title>Node2</title>
<g id="a_node2"><a xlink:title=" ">
<polygon fill="white" stroke="#bfbfbf" points="0,-56.5 0,-75.5 52,-75.5 52,-56.5 0,-56.5"/>
<text text-anchor="middle" x="26" y="-63.5" font-family="Helvetica,sans-Serif" font-size="10.00">assert.h</text>
</a>
</g>
</g>
<!-- Node1&#45;&gt;Node2 -->
<g id="edge1" class="edge">
<title>Node1&#45;&gt;Node2</title>
<path fill="none" stroke="midnightblue" d="M71.08,-112.08C63.22,-104.22 51.57,-92.57 42.08,-83.08"/>
<polygon fill="midnightblue" stroke="midnightblue" points="44.3,-80.35 34.75,-75.75 39.35,-85.3 44.3,-80.35"/>
</g>
<!-- Node3 -->
<g id="node3" class="node">
<title>Node3</title>
<g id="a_node3"><a xlink:title=" ">
<polygon fill="white" stroke="#bfbfbf" points="52,-0.5 52,-19.5 104,-19.5 104,-0.5 52,-0.5"/>
<text text-anchor="middle" x="78" y="-7.5" font-family="Helvetica,sans-Serif" font-size="10.00">stddef.h</text>
</a>
</g>
</g>
<!-- Node1&#45;&gt;Node3 -->
<g id="edge2" class="edge">
<title>Node1&#45;&gt;Node3</title>
<path fill="none" stroke="midnightblue" d="M79.84,-112.37C79.52,-94.62 78.78,-53.67 78.34,-29.6"/>
<polygon fill="midnightblue" stroke="midnightblue" points="81.84,-29.53 78.16,-19.59 74.84,-29.65 81.84,-29.53"/>
</g>
<!-- Node4 -->
<g id="node4" class="node">
<title>Node4</title>
<g id="a_node4"><a xlink:href="unibreakdef_8h.html" target="_top" xlink:title=" ">
<polygon fill="white" stroke="black" points="111.5,-56.5 111.5,-75.5 186.5,-75.5 186.5,-56.5 111.5,-56.5"/>
<text text-anchor="middle" x="149" y="-63.5" font-family="Helvetica,sans-Serif" font-size="10.00">unibreakdef.h</text>
</a>
</g>
</g>
<!-- Node1&#45;&gt;Node4 -->
<g id="edge3" class="edge">
<title>Node1&#45;&gt;Node4</title>
<path fill="none" stroke="midnightblue" d="M91.09,-112.32C101.49,-104.18 117.26,-91.84 129.72,-82.09"/>
<polygon fill="midnightblue" stroke="midnightblue" points="131.99,-84.75 137.71,-75.83 127.68,-79.24 131.99,-84.75"/>
</g>
<!-- Node4&#45;&gt;Node3 -->
<g id="edge5" class="edge">
<title>Node4&#45;&gt;Node3</title>
<path fill="none" stroke="midnightblue" d="M137.59,-56.32C126.89,-48.18 110.66,-35.84 97.84,-26.09"/>
<polygon fill="midnightblue" stroke="midnightblue" points="99.69,-23.1 89.61,-19.83 95.46,-28.67 99.69,-23.1"/>
</g>
<!-- Node5 -->
<g id="node5" class="node">
<title>Node5</title>
<g id="a_node5"><a xlink:title=" ">
<polygon fill="white" stroke="#bfbfbf" points="122,-0.5 122,-19.5 178,-19.5 178,-0.5 122,-0.5"/>
<text text-anchor="middle" x="150" y="-7.5" font-family="Helvetica,sans-Serif" font-size="10.00">stdbool.h</text>
</a>
</g>
</g>
<!-- Node4&#45;&gt;Node5 -->
<g id="edge4" class="edge">
<title>Node4&#45;&gt;Node5</title>
<path fill="none" stroke="midnightblue" d="M149.17,-56.08C149.3,-49.01 149.48,-38.86 149.65,-29.99"/>
<polygon fill="midnightblue" stroke="midnightblue" points="153.15,-29.81 149.84,-19.75 146.15,-29.68 153.15,-29.81"/>
</g>
<!-- Node6 -->
<g id="node6" class="node">
<title>Node6</title>
<g id="a_node6"><a xlink:href="unibreakbase_8h.html" target="_top" xlink:title=" ">
<polygon fill="white" stroke="black" points="196.5,-0.5 196.5,-19.5 279.5,-19.5 279.5,-0.5 196.5,-0.5"/>
<text text-anchor="middle" x="238" y="-7.5" font-family="Helvetica,sans-Serif" font-size="10.00">unibreakbase.h</text>
</a>
</g>
</g>
<!-- Node4&#45;&gt;Node6 -->
<g id="edge6" class="edge">
<title>Node4&#45;&gt;Node6</title>
<path fill="none" stroke="midnightblue" d="M163.3,-56.32C177.18,-47.9 198.49,-34.97 214.8,-25.07"/>
<polygon fill="midnightblue" stroke="midnightblue" points="217,-27.83 223.74,-19.65 213.37,-21.85 217,-27.83"/>
</g>
</g>
</svg>
