<?xml version="1.0" encoding="UTF-8" standalone="no"?>
<!DOCTYPE svg PUBLIC "-//W3C//DTD SVG 1.1//EN"
 "http://www.w3.org/Graphics/SVG/1.1/DTD/svg11.dtd">
<!-- Generated by graphviz version 2.44.0 (20200408.0750)
 -->
<!-- Title: unibreakdef.h Pages: 1 -->
<svg width="661pt" height="196pt"
 viewBox="0.00 0.00 660.50 196.00" xmlns="http://www.w3.org/2000/svg" xmlns:xlink="http://www.w3.org/1999/xlink">
<g id="graph0" class="graph" transform="scale(1 1) rotate(0) translate(4 192)">
<title>unibreakdef.h</title>
<polygon fill="white" stroke="transparent" points="-4,4 -4,-192 656.5,-192 656.5,4 -4,4"/>
<!-- Node1 -->
<g id="node1" class="node">
<title>Node1</title>
<g id="a_node1"><a xlink:title=" ">
<polygon fill="#bfbfbf" stroke="black" points="218.5,-168.5 218.5,-187.5 293.5,-187.5 293.5,-168.5 218.5,-168.5"/>
<text text-anchor="middle" x="256" y="-175.5" font-family="Helvetica,sans-Serif" font-size="10.00">unibreakdef.h</text>
</a>
</g>
</g>
<!-- Node2 -->
<g id="node2" class="node">
<title>Node2</title>
<g id="a_node2"><a xlink:href="emojidef_8h.html" target="_top" xlink:title=" ">
<polygon fill="white" stroke="black" points="166,-56.5 166,-75.5 228,-75.5 228,-56.5 166,-56.5"/>
<text text-anchor="middle" x="197" y="-63.5" font-family="Helvetica,sans-Serif" font-size="10.00">emojidef.h</text>
</a>
</g>
</g>
<!-- Node1&#45;&gt;Node2 -->
<g id="edge1" class="edge">
<title>Node1&#45;&gt;Node2</title>
<path fill="none" stroke="midnightblue" d="M246.52,-159.32C233.67,-135.37 211.24,-93.55 201.61,-75.59"/>
<polygon fill="midnightblue" stroke="midnightblue" points="243.56,-161.21 251.37,-168.37 249.73,-157.9 243.56,-161.21"/>
</g>
<!-- Node4 -->
<g id="node4" class="node">
<title>Node4</title>
<g id="a_node4"><a xlink:href="graphemebreak_8c.html" target="_top" xlink:title=" ">
<polygon fill="white" stroke="black" points="56,-0.5 56,-19.5 148,-19.5 148,-0.5 56,-0.5"/>
<text text-anchor="middle" x="102" y="-7.5" font-family="Helvetica,sans-Serif" font-size="10.00">graphemebreak.c</text>
</a>
</g>
</g>
<!-- Node1&#45;&gt;Node4 -->
<g id="edge8" class="edge">
<title>Node1&#45;&gt;Node4</title>
<path fill="none" stroke="midnightblue" d="M239.68,-161.09C219.75,-141.48 185.19,-106.95 157,-76 139.08,-56.33 119.17,-32.19 108.93,-19.58"/>
<polygon fill="midnightblue" stroke="midnightblue" points="237.45,-163.79 247.04,-168.29 242.35,-158.79 237.45,-163.79"/>
</g>
<!-- Node5 -->
<g id="node5" class="node">
<title>Node5</title>
<g id="a_node5"><a xlink:href="wordbreak_8c.html" target="_top" xlink:title=" ">
<polygon fill="white" stroke="black" points="246,-0.5 246,-19.5 316,-19.5 316,-0.5 246,-0.5"/>
<text text-anchor="middle" x="281" y="-7.5" font-family="Helvetica,sans-Serif" font-size="10.00">wordbreak.c</text>
</a>
</g>
</g>
<!-- Node1&#45;&gt;Node5 -->
<g id="edge14" class="edge">
<title>Node1&#45;&gt;Node5</title>
<path fill="none" stroke="midnightblue" d="M258.87,-157.93C264.3,-121.92 275.84,-45.23 279.71,-19.57"/>
<polygon fill="midnightblue" stroke="midnightblue" points="255.37,-157.67 257.34,-168.08 262.29,-158.71 255.37,-157.67"/>
</g>
<!-- Node6 -->
<g id="node6" class="node">
<title>Node6</title>
<g id="a_node6"><a xlink:href="graphemebreakdef_8h.html" target="_top" xlink:title=" ">
<polygon fill="white" stroke="black" points="3.5,-112.5 3.5,-131.5 108.5,-131.5 108.5,-112.5 3.5,-112.5"/>
<text text-anchor="middle" x="56" y="-119.5" font-family="Helvetica,sans-Serif" font-size="10.00">graphemebreakdef.h</text>
</a>
</g>
</g>
<!-- Node1&#45;&gt;Node6 -->
<g id="edge5" class="edge">
<title>Node1&#45;&gt;Node6</title>
<path fill="none" stroke="midnightblue" d="M214.63,-165.83C176.86,-155.63 121.86,-140.78 87.54,-131.52"/>
<polygon fill="midnightblue" stroke="midnightblue" points="213.74,-169.22 224.31,-168.44 215.57,-162.46 213.74,-169.22"/>
</g>
<!-- Node8 -->
<g id="node8" class="node">
<title>Node8</title>
<g id="a_node8"><a xlink:href="linebreakdef_8h.html" target="_top" xlink:title=" ">
<polygon fill="white" stroke="black" points="391.5,-112.5 391.5,-131.5 468.5,-131.5 468.5,-112.5 391.5,-112.5"/>
<text text-anchor="middle" x="430" y="-119.5" font-family="Helvetica,sans-Serif" font-size="10.00">linebreakdef.h</text>
</a>
</g>
</g>
<!-- Node1&#45;&gt;Node8 -->
<g id="edge9" class="edge">
<title>Node1&#45;&gt;Node8</title>
<path fill="none" stroke="midnightblue" d="M293.26,-165.44C326.07,-155.26 373.08,-140.66 402.56,-131.52"/>
<polygon fill="midnightblue" stroke="midnightblue" points="292.08,-162.14 283.57,-168.44 294.16,-168.82 292.08,-162.14"/>
</g>
<!-- Node12 -->
<g id="node12" class="node">
<title>Node12</title>
<g id="a_node12"><a xlink:href="unibreakdef_8c.html" target="_top" xlink:title=" ">
<polygon fill="white" stroke="black" points="486.5,-112.5 486.5,-131.5 561.5,-131.5 561.5,-112.5 486.5,-112.5"/>
<text text-anchor="middle" x="524" y="-119.5" font-family="Helvetica,sans-Serif" font-size="10.00">unibreakdef.c</text>
</a>
</g>
</g>
<!-- Node1&#45;&gt;Node12 -->
<g id="edge13" class="edge">
<title>Node1&#45;&gt;Node12</title>
<path fill="none" stroke="midnightblue" d="M303.55,-167.42C355.72,-156.91 438.38,-140.25 486.28,-130.6"/>
<polygon fill="midnightblue" stroke="midnightblue" points="302.66,-164.03 293.55,-169.43 304.04,-170.89 302.66,-164.03"/>
</g>
<!-- Node13 -->
<g id="node13" class="node">
<title>Node13</title>
<g id="a_node13"><a xlink:href="wordbreakdef_8h.html" target="_top" xlink:title=" ">
<polygon fill="white" stroke="black" points="286.5,-112.5 286.5,-131.5 369.5,-131.5 369.5,-112.5 286.5,-112.5"/>
<text text-anchor="middle" x="328" y="-119.5" font-family="Helvetica,sans-Serif" font-size="10.00">wordbreakdef.h</text>
</a>
</g>
</g>
<!-- Node1&#45;&gt;Node13 -->
<g id="edge15" class="edge">
<title>Node1&#45;&gt;Node13</title>
<path fill="none" stroke="midnightblue" d="M275.87,-162.1C288.82,-152.38 305.3,-140.03 316.22,-131.83"/>
<polygon fill="midnightblue" stroke="midnightblue" points="273.47,-159.52 267.57,-168.32 277.67,-165.12 273.47,-159.52"/>
</g>
<!-- Node3 -->
<g id="node3" class="node">
<title>Node3</title>
<g id="a_node3"><a xlink:href="emojidef_8c.html" target="_top" xlink:title=" ">
<polygon fill="white" stroke="black" points="166,-0.5 166,-19.5 228,-19.5 228,-0.5 166,-0.5"/>
<text text-anchor="middle" x="197" y="-7.5" font-family="Helvetica,sans-Serif" font-size="10.00">emojidef.c</text>
</a>
</g>
</g>
<!-- Node2&#45;&gt;Node3 -->
<g id="edge2" class="edge">
<title>Node2&#45;&gt;Node3</title>
<path fill="none" stroke="midnightblue" d="M197,-45.8C197,-36.91 197,-26.78 197,-19.75"/>
<polygon fill="midnightblue" stroke="midnightblue" points="193.5,-46.08 197,-56.08 200.5,-46.08 193.5,-46.08"/>
</g>
<!-- Node2&#45;&gt;Node4 -->
<g id="edge3" class="edge">
<title>Node2&#45;&gt;Node4</title>
<path fill="none" stroke="midnightblue" d="M172.68,-51.18C155.2,-41.24 132.17,-28.15 117.23,-19.65"/>
<polygon fill="midnightblue" stroke="midnightblue" points="171.31,-54.43 181.74,-56.32 174.77,-48.34 171.31,-54.43"/>
</g>
<!-- Node2&#45;&gt;Node5 -->
<g id="edge4" class="edge">
<title>Node2&#45;&gt;Node5</title>
<path fill="none" stroke="midnightblue" d="M218.93,-50.9C234.34,-41 254.45,-28.07 267.54,-19.65"/>
<polygon fill="midnightblue" stroke="midnightblue" points="217.02,-47.97 210.5,-56.32 220.8,-53.86 217.02,-47.97"/>
</g>
<!-- Node7 -->
<g id="node7" class="node">
<title>Node7</title>
<g id="a_node7"><a xlink:href="graphemebreakdata_8c.html" target="_top" xlink:title=" ">
<polygon fill="white" stroke="black" points="0,-56.5 0,-75.5 110,-75.5 110,-56.5 0,-56.5"/>
<text text-anchor="middle" x="55" y="-63.5" font-family="Helvetica,sans-Serif" font-size="10.00">graphemebreakdata.c</text>
</a>
</g>
</g>
<!-- Node6&#45;&gt;Node7 -->
<g id="edge6" class="edge">
<title>Node6&#45;&gt;Node7</title>
<path fill="none" stroke="midnightblue" d="M55.64,-101.8C55.48,-92.91 55.29,-82.78 55.16,-75.75"/>
<polygon fill="midnightblue" stroke="midnightblue" points="52.15,-102.15 55.83,-112.08 59.15,-102.02 52.15,-102.15"/>
</g>
<!-- Node7&#45;&gt;Node4 -->
<g id="edge7" class="edge">
<title>Node7&#45;&gt;Node4</title>
<path fill="none" stroke="midnightblue" d="M69.42,-48.43C77.66,-38.97 87.65,-27.48 94.38,-19.75"/>
<polygon fill="midnightblue" stroke="midnightblue" points="66.69,-46.24 62.76,-56.08 71.97,-50.84 66.69,-46.24"/>
</g>
<!-- Node9 -->
<g id="node9" class="node">
<title>Node9</title>
<g id="a_node9"><a xlink:href="linebreak_8c.html" target="_top" xlink:title=" ">
<polygon fill="white" stroke="black" points="487,-56.5 487,-75.5 551,-75.5 551,-56.5 487,-56.5"/>
<text text-anchor="middle" x="519" y="-63.5" font-family="Helvetica,sans-Serif" font-size="10.00">linebreak.c</text>
</a>
</g>
</g>
<!-- Node8&#45;&gt;Node9 -->
<g id="edge10" class="edge">
<title>Node8&#45;&gt;Node9</title>
<path fill="none" stroke="midnightblue" d="M453.24,-106.9C469.56,-97 490.87,-84.07 504.74,-75.65"/>
<polygon fill="midnightblue" stroke="midnightblue" points="451.03,-104.14 444.3,-112.32 454.66,-110.13 451.03,-104.14"/>
</g>
<!-- Node10 -->
<g id="node10" class="node">
<title>Node10</title>
<g id="a_node10"><a xlink:href="linebreakdata_8c.html" target="_top" xlink:title=" ">
<polygon fill="white" stroke="black" points="569.5,-56.5 569.5,-75.5 652.5,-75.5 652.5,-56.5 569.5,-56.5"/>
<text text-anchor="middle" x="611" y="-63.5" font-family="Helvetica,sans-Serif" font-size="10.00">linebreakdata.c</text>
</a>
</g>
</g>
<!-- Node8&#45;&gt;Node10 -->
<g id="edge11" class="edge">
<title>Node8&#45;&gt;Node10</title>
<path fill="none" stroke="midnightblue" d="M468.32,-109.57C502.46,-99.38 551.66,-84.7 582.45,-75.52"/>
<polygon fill="midnightblue" stroke="midnightblue" points="467.26,-106.23 458.68,-112.44 469.26,-112.94 467.26,-106.23"/>
</g>
<!-- Node11 -->
<g id="node11" class="node">
<title>Node11</title>
<g id="a_node11"><a xlink:href="linebreakdef_8c.html" target="_top" xlink:title=" ">
<polygon fill="white" stroke="black" points="391.5,-56.5 391.5,-75.5 468.5,-75.5 468.5,-56.5 391.5,-56.5"/>
<text text-anchor="middle" x="430" y="-63.5" font-family="Helvetica,sans-Serif" font-size="10.00">linebreakdef.c</text>
</a>
</g>
</g>
<!-- Node8&#45;&gt;Node11 -->
<g id="edge12" class="edge">
<title>Node8&#45;&gt;Node11</title>
<path fill="none" stroke="midnightblue" d="M430,-101.8C430,-92.91 430,-82.78 430,-75.75"/>
<polygon fill="midnightblue" stroke="midnightblue" points="426.5,-102.08 430,-112.08 433.5,-102.08 426.5,-102.08"/>
</g>
<!-- Node14 -->
<g id="node14" class="node">
<title>Node14</title>
<g id="a_node14"><a xlink:href="wordbreakdata_8c.html" target="_top" xlink:title=" ">
<polygon fill="white" stroke="black" points="284.5,-56.5 284.5,-75.5 373.5,-75.5 373.5,-56.5 284.5,-56.5"/>
<text text-anchor="middle" x="329" y="-63.5" font-family="Helvetica,sans-Serif" font-size="10.00">wordbreakdata.c</text>
</a>
</g>
</g>
<!-- Node13&#45;&gt;Node14 -->
<g id="edge16" class="edge">
<title>Node13&#45;&gt;Node14</title>
<path fill="none" stroke="midnightblue" d="M328.36,-101.8C328.52,-92.91 328.71,-82.78 328.84,-75.75"/>
<polygon fill="midnightblue" stroke="midnightblue" points="324.85,-102.02 328.17,-112.08 331.85,-102.15 324.85,-102.02"/>
</g>
<!-- Node14&#45;&gt;Node5 -->
<g id="edge17" class="edge">
<title>Node14&#45;&gt;Node5</title>
<path fill="none" stroke="midnightblue" d="M314.27,-48.43C305.86,-38.97 295.65,-27.48 288.78,-19.75"/>
<polygon fill="midnightblue" stroke="midnightblue" points="311.81,-50.93 321.07,-56.08 317.05,-46.28 311.81,-50.93"/>
</g>
</g>
</svg>
