<?xml version="1.0" encoding="UTF-8" standalone="no"?>
<!DOCTYPE svg PUBLIC "-//W3C//DTD SVG 1.1//EN"
 "http://www.w3.org/Graphics/SVG/1.1/DTD/svg11.dtd">
<!-- Generated by graphviz version 2.44.0 (20200408.0750)
 -->
<!-- Title: wordbreakdata.c Pages: 1 -->
<svg width="236pt" height="196pt"
 viewBox="0.00 0.00 235.50 196.00" xmlns="http://www.w3.org/2000/svg" xmlns:xlink="http://www.w3.org/1999/xlink">
<g id="graph0" class="graph" transform="scale(1 1) rotate(0) translate(4 192)">
<title>wordbreakdata.c</title>
<polygon fill="white" stroke="transparent" points="-4,4 -4,-192 231.5,-192 231.5,4 -4,4"/>
<!-- Node1 -->
<g id="node1" class="node">
<title>Node1</title>
<g id="a_node1"><a xlink:title=" ">
<polygon fill="#bfbfbf" stroke="black" points="55.5,-168.5 55.5,-187.5 144.5,-187.5 144.5,-168.5 55.5,-168.5"/>
<text text-anchor="middle" x="100" y="-175.5" font-family="Helvetica,sans-Serif" font-size="10.00">wordbreakdata.c</text>
</a>
</g>
</g>
<!-- Node2 -->
<g id="node2" class="node">
<title>Node2</title>
<g id="a_node2"><a xlink:href="wordbreakdef_8h.html" target="_top" xlink:title=" ">
<polygon fill="white" stroke="black" points="58.5,-112.5 58.5,-131.5 141.5,-131.5 141.5,-112.5 58.5,-112.5"/>
<text text-anchor="middle" x="100" y="-119.5" font-family="Helvetica,sans-Serif" font-size="10.00">wordbreakdef.h</text>
</a>
</g>
</g>
<!-- Node1&#45;&gt;Node2 -->
<g id="edge1" class="edge">
<title>Node1&#45;&gt;Node2</title>
<path fill="none" stroke="midnightblue" d="M100,-168.08C100,-161.01 100,-150.86 100,-141.99"/>
<polygon fill="midnightblue" stroke="midnightblue" points="103.5,-141.75 100,-131.75 96.5,-141.75 103.5,-141.75"/>
</g>
<!-- Node3 -->
<g id="node3" class="node">
<title>Node3</title>
<g id="a_node3"><a xlink:href="unibreakdef_8h.html" target="_top" xlink:title=" ">
<polygon fill="white" stroke="black" points="62.5,-56.5 62.5,-75.5 137.5,-75.5 137.5,-56.5 62.5,-56.5"/>
<text text-anchor="middle" x="100" y="-63.5" font-family="Helvetica,sans-Serif" font-size="10.00">unibreakdef.h</text>
</a>
</g>
</g>
<!-- Node2&#45;&gt;Node3 -->
<g id="edge2" class="edge">
<title>Node2&#45;&gt;Node3</title>
<path fill="none" stroke="midnightblue" d="M100,-112.08C100,-105.01 100,-94.86 100,-85.99"/>
<polygon fill="midnightblue" stroke="midnightblue" points="103.5,-85.75 100,-75.75 96.5,-85.75 103.5,-85.75"/>
</g>
<!-- Node4 -->
<g id="node4" class="node">
<title>Node4</title>
<g id="a_node4"><a xlink:title=" ">
<polygon fill="white" stroke="#bfbfbf" points="0,-0.5 0,-19.5 56,-19.5 56,-0.5 0,-0.5"/>
<text text-anchor="middle" x="28" y="-7.5" font-family="Helvetica,sans-Serif" font-size="10.00">stdbool.h</text>
</a>
</g>
</g>
<!-- Node3&#45;&gt;Node4 -->
<g id="edge3" class="edge">
<title>Node3&#45;&gt;Node4</title>
<path fill="none" stroke="midnightblue" d="M88.43,-56.32C77.58,-48.18 61.12,-35.84 48.12,-26.09"/>
<polygon fill="midnightblue" stroke="midnightblue" points="49.88,-23.03 39.78,-19.83 45.68,-28.63 49.88,-23.03"/>
</g>
<!-- Node5 -->
<g id="node5" class="node">
<title>Node5</title>
<g id="a_node5"><a xlink:title=" ">
<polygon fill="white" stroke="#bfbfbf" points="74,-0.5 74,-19.5 126,-19.5 126,-0.5 74,-0.5"/>
<text text-anchor="middle" x="100" y="-7.5" font-family="Helvetica,sans-Serif" font-size="10.00">stddef.h</text>
</a>
</g>
</g>
<!-- Node3&#45;&gt;Node5 -->
<g id="edge4" class="edge">
<title>Node3&#45;&gt;Node5</title>
<path fill="none" stroke="midnightblue" d="M100,-56.08C100,-49.01 100,-38.86 100,-29.99"/>
<polygon fill="midnightblue" stroke="midnightblue" points="103.5,-29.75 100,-19.75 96.5,-29.75 103.5,-29.75"/>
</g>
<!-- Node6 -->
<g id="node6" class="node">
<title>Node6</title>
<g id="a_node6"><a xlink:href="unibreakbase_8h.html" target="_top" xlink:title=" ">
<polygon fill="white" stroke="black" points="144.5,-0.5 144.5,-19.5 227.5,-19.5 227.5,-0.5 144.5,-0.5"/>
<text text-anchor="middle" x="186" y="-7.5" font-family="Helvetica,sans-Serif" font-size="10.00">unibreakbase.h</text>
</a>
</g>
</g>
<!-- Node3&#45;&gt;Node6 -->
<g id="edge5" class="edge">
<title>Node3&#45;&gt;Node6</title>
<path fill="none" stroke="midnightblue" d="M113.82,-56.32C127.23,-47.9 147.82,-34.97 163.59,-25.07"/>
<polygon fill="midnightblue" stroke="midnightblue" points="165.61,-27.94 172.22,-19.65 161.89,-22.01 165.61,-27.94"/>
</g>
</g>
</svg>
