<?xml version="1.0" encoding="UTF-8" standalone="no"?>
<!DOCTYPE svg PUBLIC "-//W3C//DTD SVG 1.1//EN"
 "http://www.w3.org/Graphics/SVG/1.1/DTD/svg11.dtd">
<!-- Generated by graphviz version 2.44.0 (20200408.0750)
 -->
<!-- Title: wordbreak.c Pages: 1 -->
<svg width="388pt" height="252pt"
 viewBox="0.00 0.00 387.50 252.00" xmlns="http://www.w3.org/2000/svg" xmlns:xlink="http://www.w3.org/1999/xlink">
<g id="graph0" class="graph" transform="scale(1 1) rotate(0) translate(4 248)">
<title>wordbreak.c</title>
<polygon fill="white" stroke="transparent" points="-4,4 -4,-248 383.5,-248 383.5,4 -4,4"/>
<!-- Node1 -->
<g id="node1" class="node">
<title>Node1</title>
<g id="a_node1"><a xlink:title=" ">
<polygon fill="#bfbfbf" stroke="black" points="156,-224.5 156,-243.5 226,-243.5 226,-224.5 156,-224.5"/>
<text text-anchor="middle" x="191" y="-231.5" font-family="Helvetica,sans-Serif" font-size="10.00">wordbreak.c</text>
</a>
</g>
</g>
<!-- Node2 -->
<g id="node2" class="node">
<title>Node2</title>
<g id="a_node2"><a xlink:title=" ">
<polygon fill="white" stroke="#bfbfbf" points="0,-168.5 0,-187.5 52,-187.5 52,-168.5 0,-168.5"/>
<text text-anchor="middle" x="26" y="-175.5" font-family="Helvetica,sans-Serif" font-size="10.00">assert.h</text>
</a>
</g>
</g>
<!-- Node1&#45;&gt;Node2 -->
<g id="edge1" class="edge">
<title>Node1&#45;&gt;Node2</title>
<path fill="none" stroke="midnightblue" d="M164.86,-224.44C136.98,-215.32 92.65,-200.81 61.6,-190.65"/>
<polygon fill="midnightblue" stroke="midnightblue" points="62.62,-187.3 52.02,-187.52 60.44,-193.95 62.62,-187.3"/>
</g>
<!-- Node3 -->
<g id="node3" class="node">
<title>Node3</title>
<g id="a_node3"><a xlink:title=" ">
<polygon fill="white" stroke="#bfbfbf" points="266,-0.5 266,-19.5 318,-19.5 318,-0.5 266,-0.5"/>
<text text-anchor="middle" x="292" y="-7.5" font-family="Helvetica,sans-Serif" font-size="10.00">stddef.h</text>
</a>
</g>
</g>
<!-- Node1&#45;&gt;Node3 -->
<g id="edge2" class="edge">
<title>Node1&#45;&gt;Node3</title>
<path fill="none" stroke="midnightblue" d="M213.78,-224.38C229.8,-217.12 250.37,-205.15 262,-188 295.46,-138.63 295.66,-64.16 293.63,-29.71"/>
<polygon fill="midnightblue" stroke="midnightblue" points="297.11,-29.37 292.9,-19.65 290.13,-29.88 297.11,-29.37"/>
</g>
<!-- Node4 -->
<g id="node4" class="node">
<title>Node4</title>
<g id="a_node4"><a xlink:title=" ">
<polygon fill="white" stroke="#bfbfbf" points="330.5,-168.5 330.5,-187.5 379.5,-187.5 379.5,-168.5 330.5,-168.5"/>
<text text-anchor="middle" x="355" y="-175.5" font-family="Helvetica,sans-Serif" font-size="10.00">string.h</text>
</a>
</g>
</g>
<!-- Node1&#45;&gt;Node4 -->
<g id="edge3" class="edge">
<title>Node1&#45;&gt;Node4</title>
<path fill="none" stroke="midnightblue" d="M216.99,-224.44C245.1,-215.19 290.05,-200.39 320.97,-190.21"/>
<polygon fill="midnightblue" stroke="midnightblue" points="322.07,-193.53 330.47,-187.08 319.88,-186.88 322.07,-193.53"/>
</g>
<!-- Node5 -->
<g id="node5" class="node">
<title>Node5</title>
<g id="a_node5"><a xlink:href="unibreakdef_8h.html" target="_top" xlink:title=" ">
<polygon fill="white" stroke="black" points="90.5,-56.5 90.5,-75.5 165.5,-75.5 165.5,-56.5 90.5,-56.5"/>
<text text-anchor="middle" x="128" y="-63.5" font-family="Helvetica,sans-Serif" font-size="10.00">unibreakdef.h</text>
</a>
</g>
</g>
<!-- Node1&#45;&gt;Node5 -->
<g id="edge4" class="edge">
<title>Node1&#45;&gt;Node5</title>
<path fill="none" stroke="midnightblue" d="M174.94,-224.46C162.25,-216.76 145.32,-204.17 137,-188 120.11,-155.17 122.13,-110.59 125.08,-85.73"/>
<polygon fill="midnightblue" stroke="midnightblue" points="128.59,-85.91 126.48,-75.52 121.65,-84.95 128.59,-85.91"/>
</g>
<!-- Node8 -->
<g id="node8" class="node">
<title>Node8</title>
<g id="a_node8"><a xlink:href="wordbreak_8h.html" target="_top" xlink:title=" ">
<polygon fill="white" stroke="black" points="204,-56.5 204,-75.5 274,-75.5 274,-56.5 204,-56.5"/>
<text text-anchor="middle" x="239" y="-63.5" font-family="Helvetica,sans-Serif" font-size="10.00">wordbreak.h</text>
</a>
</g>
</g>
<!-- Node1&#45;&gt;Node8 -->
<g id="edge8" class="edge">
<title>Node1&#45;&gt;Node8</title>
<path fill="none" stroke="midnightblue" d="M207.63,-224.46C220.49,-216.84 237.34,-204.36 245,-188 260.63,-154.63 252.06,-110.28 245.09,-85.59"/>
<polygon fill="midnightblue" stroke="midnightblue" points="248.35,-84.29 242.09,-75.74 241.66,-86.33 248.35,-84.29"/>
</g>
<!-- Node9 -->
<g id="node9" class="node">
<title>Node9</title>
<g id="a_node9"><a xlink:href="wordbreakdata_8c.html" target="_top" xlink:title=" ">
<polygon fill="white" stroke="black" points="146.5,-168.5 146.5,-187.5 235.5,-187.5 235.5,-168.5 146.5,-168.5"/>
<text text-anchor="middle" x="191" y="-175.5" font-family="Helvetica,sans-Serif" font-size="10.00">wordbreakdata.c</text>
</a>
</g>
</g>
<!-- Node1&#45;&gt;Node9 -->
<g id="edge11" class="edge">
<title>Node1&#45;&gt;Node9</title>
<path fill="none" stroke="midnightblue" d="M191,-224.08C191,-217.01 191,-206.86 191,-197.99"/>
<polygon fill="midnightblue" stroke="midnightblue" points="194.5,-197.75 191,-187.75 187.5,-197.75 194.5,-197.75"/>
</g>
<!-- Node11 -->
<g id="node11" class="node">
<title>Node11</title>
<g id="a_node11"><a xlink:href="emojidef_8h.html" target="_top" xlink:title=" ">
<polygon fill="white" stroke="black" points="28,-112.5 28,-131.5 90,-131.5 90,-112.5 28,-112.5"/>
<text text-anchor="middle" x="59" y="-119.5" font-family="Helvetica,sans-Serif" font-size="10.00">emojidef.h</text>
</a>
</g>
</g>
<!-- Node1&#45;&gt;Node11 -->
<g id="edge14" class="edge">
<title>Node1&#45;&gt;Node11</title>
<path fill="none" stroke="midnightblue" d="M167.32,-224.45C148.67,-216.89 122.77,-204.51 104,-188 88.74,-174.58 76.08,-154.94 68.11,-140.76"/>
<polygon fill="midnightblue" stroke="midnightblue" points="70.99,-138.73 63.18,-131.58 64.83,-142.04 70.99,-138.73"/>
</g>
<!-- Node5&#45;&gt;Node3 -->
<g id="edge6" class="edge">
<title>Node5&#45;&gt;Node3</title>
<path fill="none" stroke="midnightblue" d="M153.99,-56.44C181.7,-47.32 225.75,-32.81 256.62,-22.65"/>
<polygon fill="midnightblue" stroke="midnightblue" points="257.73,-25.97 266.14,-19.52 255.54,-19.32 257.73,-25.97"/>
</g>
<!-- Node6 -->
<g id="node6" class="node">
<title>Node6</title>
<g id="a_node6"><a xlink:title=" ">
<polygon fill="white" stroke="#bfbfbf" points="90,-0.5 90,-19.5 146,-19.5 146,-0.5 90,-0.5"/>
<text text-anchor="middle" x="118" y="-7.5" font-family="Helvetica,sans-Serif" font-size="10.00">stdbool.h</text>
</a>
</g>
</g>
<!-- Node5&#45;&gt;Node6 -->
<g id="edge5" class="edge">
<title>Node5&#45;&gt;Node6</title>
<path fill="none" stroke="midnightblue" d="M126.35,-56.08C125.02,-48.93 123.12,-38.64 121.46,-29.69"/>
<polygon fill="midnightblue" stroke="midnightblue" points="124.88,-28.95 119.62,-19.75 118,-30.22 124.88,-28.95"/>
</g>
<!-- Node7 -->
<g id="node7" class="node">
<title>Node7</title>
<g id="a_node7"><a xlink:href="unibreakbase_8h.html" target="_top" xlink:title=" ">
<polygon fill="white" stroke="black" points="164.5,-0.5 164.5,-19.5 247.5,-19.5 247.5,-0.5 164.5,-0.5"/>
<text text-anchor="middle" x="206" y="-7.5" font-family="Helvetica,sans-Serif" font-size="10.00">unibreakbase.h</text>
</a>
</g>
</g>
<!-- Node5&#45;&gt;Node7 -->
<g id="edge7" class="edge">
<title>Node5&#45;&gt;Node7</title>
<path fill="none" stroke="midnightblue" d="M140.53,-56.32C152.59,-47.98 171.03,-35.21 185.27,-25.35"/>
<polygon fill="midnightblue" stroke="midnightblue" points="187.27,-28.22 193.5,-19.65 183.28,-22.47 187.27,-28.22"/>
</g>
<!-- Node8&#45;&gt;Node3 -->
<g id="edge9" class="edge">
<title>Node8&#45;&gt;Node3</title>
<path fill="none" stroke="midnightblue" d="M247.75,-56.08C255.47,-48.22 266.9,-36.57 276.22,-27.08"/>
<polygon fill="midnightblue" stroke="midnightblue" points="278.9,-29.34 283.41,-19.75 273.91,-24.44 278.9,-29.34"/>
</g>
<!-- Node8&#45;&gt;Node7 -->
<g id="edge10" class="edge">
<title>Node8&#45;&gt;Node7</title>
<path fill="none" stroke="midnightblue" d="M233.55,-56.08C228.99,-48.61 222.33,-37.72 216.71,-28.52"/>
<polygon fill="midnightblue" stroke="midnightblue" points="219.55,-26.46 211.35,-19.75 213.58,-30.11 219.55,-26.46"/>
</g>
<!-- Node10 -->
<g id="node10" class="node">
<title>Node10</title>
<g id="a_node10"><a xlink:href="wordbreakdef_8h.html" target="_top" xlink:title=" ">
<polygon fill="white" stroke="black" points="148.5,-112.5 148.5,-131.5 231.5,-131.5 231.5,-112.5 148.5,-112.5"/>
<text text-anchor="middle" x="190" y="-119.5" font-family="Helvetica,sans-Serif" font-size="10.00">wordbreakdef.h</text>
</a>
</g>
</g>
<!-- Node9&#45;&gt;Node10 -->
<g id="edge12" class="edge">
<title>Node9&#45;&gt;Node10</title>
<path fill="none" stroke="midnightblue" d="M190.83,-168.08C190.7,-161.01 190.52,-150.86 190.35,-141.99"/>
<polygon fill="midnightblue" stroke="midnightblue" points="193.85,-141.68 190.16,-131.75 186.85,-141.81 193.85,-141.68"/>
</g>
<!-- Node10&#45;&gt;Node5 -->
<g id="edge13" class="edge">
<title>Node10&#45;&gt;Node5</title>
<path fill="none" stroke="midnightblue" d="M180.04,-112.32C170.87,-104.34 157.06,-92.31 145.97,-82.65"/>
<polygon fill="midnightblue" stroke="midnightblue" points="147.98,-79.76 138.14,-75.83 143.38,-85.04 147.98,-79.76"/>
</g>
<!-- Node11&#45;&gt;Node5 -->
<g id="edge15" class="edge">
<title>Node11&#45;&gt;Node5</title>
<path fill="none" stroke="midnightblue" d="M70.09,-112.32C80.49,-104.18 96.26,-91.84 108.72,-82.09"/>
<polygon fill="midnightblue" stroke="midnightblue" points="110.99,-84.75 116.71,-75.83 106.68,-79.24 110.99,-84.75"/>
</g>
</g>
</svg>
